<?xml version="1.0" standalone="no"?><!DOCTYPE svg PUBLIC "-//W3C//DTD SVG 1.1//EN" "http://www.w3.org/Graphics/SVG/1.1/DTD/svg11.dtd"><svg t="1614151855594" class="icon" viewBox="0 0 1024 1024" version="1.1" xmlns="http://www.w3.org/2000/svg" p-id="807" xmlns:xlink="http://www.w3.org/1999/xlink" width="128" height="128"><defs><style type="text/css"></style></defs><path d="M0 0m223.418182 0l577.163636 0q223.418182 0 223.418182 223.418182l0 577.163636q0 223.418182-223.418182 223.418182l-577.163636 0q-223.418182 0-223.418182-223.418182l0-577.163636q0-223.418182 223.418182-223.418182Z" fill="#E4FAFE" p-id="808"></path><path d="M249.632582 537.693091h111.764945a18.506473 18.506473 0 0 0 18.655418-18.376146 18.543709 18.543709 0 0 0-18.655418-18.376145h-111.764945a18.506473 18.506473 0 0 0-18.655418 18.376145c0 10.128291 8.3968 18.357527 18.655418 18.357528z m534.676945 153.320727l-64.176872-63.301818c19.828364-24.948364 32.209455-55.929018 32.209454-90.149236 0-81.082182-66.690327-146.822982-148.964073-146.822982-82.255127 0-148.945455 65.722182-148.945454 146.822982 0 81.026327 66.690327 146.8416 148.945454 146.8416 34.667055 0 66.131782-12.157673 91.508364-31.762619l64.046545 63.171491a18.115491 18.115491 0 0 0 25.264873 0 17.370764 17.370764 0 0 0 0.111709-24.799418z m-101.078109-76.557963c-0.335127 0.335127-0.781964 0.372364-1.117091 0.726109-0.335127 0.335127-0.502691 0.781964-0.744727 1.117091a112.211782 112.211782 0 0 1-78.047418 31.42749c-61.719273 0-111.671855-49.226473-111.671855-110.033454 0-60.8256 50.008436-110.052073 111.671855-110.052073 61.719273 0 111.671855 49.226473 111.671854 110.033455a107.464145 107.464145 0 0 1-31.762618 76.781382z m-433.617454-296.96h335.127272a18.506473 18.506473 0 0 0 18.6368-18.376146 18.543709 18.543709 0 0 0-18.655418-18.376145H249.632582a18.506473 18.506473 0 0 0-18.655418 18.376145 18.618182 18.618182 0 0 0 18.655418 18.357527z m149.019927 73.355636h-148.945455a18.506473 18.506473 0 0 0-18.655418 18.357527c0 10.146909 8.340945 18.376145 18.655418 18.376146h148.945455a18.506473 18.506473 0 0 0 18.655418-18.376146 18.543709 18.543709 0 0 0-18.655418-18.357527z m0 220.178618h-148.945455a18.506473 18.506473 0 0 0-18.655418 18.376146c0 10.128291 8.340945 18.376145 18.655418 18.376145h148.945455a18.506473 18.506473 0 0 0 18.655418-18.376145 18.543709 18.543709 0 0 0-18.655418-18.376146z" fill="#4A90E2" p-id="809"></path></svg>