<?xml version="1.0" standalone="no"?><!DOCTYPE svg PUBLIC "-//W3C//DTD SVG 1.1//EN" "http://www.w3.org/Graphics/SVG/1.1/DTD/svg11.dtd"><svg t="1614151842736" class="icon" viewBox="0 0 1024 1024" version="1.1" xmlns="http://www.w3.org/2000/svg" p-id="613" width="128" height="128" xmlns:xlink="http://www.w3.org/1999/xlink"><defs><style type="text/css"></style></defs><path d="M0 0m223.418182 0l577.163636 0q223.418182 0 223.418182 223.418182l0 577.163636q0 223.418182-223.418182 223.418182l-577.163636 0q-223.418182 0-223.418182-223.418182l0-577.163636q0-223.418182 223.418182-223.418182Z" fill="#FFF7E8" p-id="614"></path><path d="M681.425455 759.621818h-335.127273a67.062691 67.062691 0 0 1-67.025455-67.025454V290.443636c0-36.994327 30.031127-67.025455 67.025455-67.025454h335.127273c36.994327 0 67.025455 30.031127 67.025454 67.025454v402.152728c0 37.012945-30.031127 67.025455-67.025454 67.025454z m26.996363-462.661818c0-17.892073-14.522182-32.395636-32.432873-32.395636H351.734691c-17.910691 0-32.432873 14.503564-32.432873 32.395636v389.12c0 17.873455 14.559418 32.432873 32.432873 32.432873h324.254254c17.910691 0 32.432873-14.522182 32.432873-32.432873V296.922764v0.055854zM631.156364 592.002327H396.567273a16.737745 16.737745 0 0 1 0-33.475491h234.589091a16.737745 16.737745 0 0 1 0 33.475491z m0-100.500945H396.567273a16.756364 16.756364 0 1 1 0-33.512727h234.589091a16.756364 16.756364 0 1 1 0 33.512727z m-134.032291-100.519564H396.567273a16.756364 16.756364 0 1 1 0-33.512727h100.5568a16.756364 16.756364 0 1 1 0 33.512727z" fill="#FFCC79" p-id="615"></path></svg>